<svg xmlns="http://www.w3.org/2000/svg" width="40" height="40" viewBox="0 0 40 40"><g fill="none" fill-rule="evenodd"><path fill="#FFF" fill-rule="nonzero" d="M17.8 37.518l-.453 2.383-.722-.138-.118-1.707-.73 1.546-.725-.139.454-2.383.446.085-.356 1.877.827-1.787.463.088.11 1.966.36-1.876.445.085zm-4.825-1.313l.499.173.017.59.918.32.371-.455.49.17-1.684 1.983-.49-.17-.121-2.612zm.531 1.204l.024.958.604-.74-.628-.218zm-.761-1.339l-1.117 2.154-.422-.22-.137-1.903-.749 1.443-.402-.209 1.117-2.153.435.226.138 1.868.734-1.415.403.21zm-3.928-2.436l.43.309-.152.57.79.568.485-.332.422.303-2.177 1.423-.422-.303.624-2.538zm.168 1.306l-.249.926.79-.539-.54-.387zm-1.797-1.62l-.284.296-.76-.73.67-.698c.144-.002.311.038.505.118.192.08.36.19.504.328.183.176.305.367.367.575.062.207.058.415-.01.624a1.483 1.483 0 0 1-.347.566 1.405 1.405 0 0 1-.581.377c-.213.068-.43.07-.649.004a1.252 1.252 0 0 1-.502-.315c-.217-.209-.342-.417-.377-.626a.862.862 0 0 1 .128-.605l.415.272a.516.516 0 0 0-.057.338c.02.114.08.22.183.318a.66.66 0 0 0 .508.206c.185-.01.37-.112.555-.305.2-.208.303-.408.311-.6a.641.641 0 0 0-.212-.505.843.843 0 0 0-.264-.17 1.04 1.04 0 0 0-.293-.077l-.213.222.403.387zm-.41-1.721l-1.84 1.58-.319-.373 1.84-1.58.32.373zm-.628-.726l-1.984 1.394-.273-.39.757-1.75-1.33.933-.26-.372 1.984-1.393.282.402-.74 1.72 1.304-.915.26.371zm-2.675-2.636l-.366.183-.471-.942.865-.433c.135.046.28.14.435.28.154.14.276.3.365.478.114.227.165.448.154.665a1.021 1.021 0 0 1-.22.585 1.48 1.48 0 0 1-.515.417c-.226.113-.45.166-.674.16a1.073 1.073 0 0 1-.612-.213 1.252 1.252 0 0 1-.368-.465c-.134-.27-.183-.509-.146-.717a.861.861 0 0 1 .324-.527l.3.396a.516.516 0 0 0-.167.299.58.58 0 0 0 .065.361.66.66 0 0 0 .41.364c.178.052.386.018.625-.101.258-.13.423-.283.494-.462a.641.641 0 0 0-.031-.546.843.843 0 0 0-.192-.248 1.04 1.04 0 0 0-.25-.172l-.275.138.25.5zm-.153-2.649L.98 26.22l-.191-.71 1.483-.85-1.708.015-.192-.713 2.341-.63.118.438-1.842.498 1.967-.035.122.456-1.719.957 1.844-.495.118.438zm-.64-2.737l-2.393.392-.079-.485 2.393-.392.079.485zm-1.104-2.02l-.409.025-.064-1.052.966-.059c.105.096.202.239.29.429.087.19.137.384.149.583.015.253-.024.477-.12.672a1.02 1.02 0 0 1-.43.452 1.48 1.48 0 0 1-.638.181 1.404 1.404 0 0 1-.683-.117 1.075 1.075 0 0 1-.48-.437 1.254 1.254 0 0 1-.155-.572c-.019-.3.03-.54.146-.716a.86.86 0 0 1 .504-.358l.12.481a.516.516 0 0 0-.27.21.579.579 0 0 0-.081.358.66.66 0 0 0 .234.496c.143.118.348.168.615.152.287-.017.5-.094.635-.23a.641.641 0 0 0 .185-.515.845.845 0 0 0-.078-.304c-.047-.1-.101-.186-.163-.256l-.307.019.034.558zm.873-1.562l-2.414-.217.092-1.028c.023-.258.062-.444.116-.557.054-.114.139-.2.256-.26a.7.7 0 0 1 .39-.072.648.648 0 0 1 .435.2c.108.116.168.282.18.496.07-.1.146-.18.226-.242a2.75 2.75 0 0 1 .417-.241l.497-.253-.052.584-.559.302a3.336 3.336 0 0 0-.377.227.38.38 0 0 0-.113.137.826.826 0 0 0-.05.245l-.008.099 1.008.09-.044.49zm-1.349-.615l.033-.36c.02-.235.024-.381.01-.442a.263.263 0 0 0-.09-.146.315.315 0 0 0-.178-.065.293.293 0 0 0-.203.047.298.298 0 0 0-.11.175c-.01.04-.023.158-.041.355l-.034.381.613.055zm2.133-3.943l-.124.515-.586.073-.228.946.489.326-.123.505L.53 15.59l.122-.505 2.584-.374zm-1.145.647l-.952.116.795.53.157-.646zm1.364-1.162l-1.902-.662-.236.679-.387-.135.632-1.818.386.134-.234.676 1.903.662-.162.464zm.563-1.397l-2.202-1.014.205-.446 2.202 1.013-.205.447zm-.683-1.385a1.55 1.55 0 0 1-.483-.41c-.08-.11-.137-.23-.174-.363a.955.955 0 0 1-.032-.38c.02-.164.08-.33.18-.502.18-.31.42-.5.719-.575.3-.074.62-.011.963.188.339.197.55.444.635.74.084.295.037.597-.142.905-.181.312-.42.505-.718.578-.298.074-.614.013-.948-.181zm.24-.445c.237.138.449.188.635.15a.621.621 0 0 0 .427-.312.619.619 0 0 0 .06-.523c-.059-.18-.21-.34-.453-.482-.24-.14-.45-.191-.63-.154a.618.618 0 0 0-.423.318.625.625 0 0 0-.066.527c.058.177.208.335.449.476zM5.81 9.69l-1.9-1.507.294-.373 1.893.227-1.273-1.01.281-.355 1.9 1.506-.304.385-1.859-.22 1.25.99-.282.357zm2.658-2.889l-1.312-1.53-.545.467-.266-.31 1.46-1.254.266.311-.542.466 1.311 1.53-.372.32zm1.166-.985L8.342 3.765l.415-.263.51.809.807-.51-.51-.809.416-.262 1.293 2.052-.415.263-.566-.898-.807.51.565.898-.415.262zm2.068-1.314l-.975-2.222.944-.415c.237-.104.419-.16.543-.167a.555.555 0 0 1 .352.099.7.7 0 0 1 .25.307.65.65 0 0 1 .036.478c-.05.151-.166.284-.347.397.12.014.228.041.32.082.093.04.23.123.413.249l.46.314-.535.236-.534-.344a3.349 3.349 0 0 0-.38-.222.379.379 0 0 0-.176-.032.823.823 0 0 0-.237.075l-.091.04.407.927-.45.198zm-.113-1.48l.332-.145c.215-.095.345-.163.39-.204a.263.263 0 0 0 .085-.15.315.315 0 0 0-.028-.187.293.293 0 0 0-.14-.155.297.297 0 0 0-.206-.013c-.04.011-.15.057-.33.136l-.35.154.247.565zm1.895-.593a1.551 1.551 0 0 1-.087-.627c.014-.135.052-.264.112-.387a.956.956 0 0 1 .23-.305c.125-.107.28-.192.469-.253.34-.11.646-.093.919.052.272.146.47.406.592.783.12.373.114.699-.02.975-.134.277-.371.47-.71.58-.343.111-.65.095-.92-.05-.27-.143-.466-.399-.585-.768zm.475-.17c.084.26.21.44.374.535a.62.62 0 0 0 .526.054.618.618 0 0 0 .393-.35c.076-.173.07-.393-.017-.661-.086-.265-.208-.444-.366-.536a.618.618 0 0 0-.526-.046.624.624 0 0 0-.401.349c-.075.17-.07.388.017.654zM16.092.423l.485-.08.212 1.298c.033.207.061.339.083.398a.394.394 0 0 0 .184.212c.087.047.197.06.331.038.135-.023.233-.067.293-.135a.337.337 0 0 0 .09-.227c.001-.084-.014-.22-.045-.41L17.51.192l.484-.079.206 1.26c.047.287.067.492.06.615a.687.687 0 0 1-.095.325.731.731 0 0 1-.248.24c-.11.069-.258.118-.447.149-.228.037-.404.04-.53.005a.751.751 0 0 1-.313-.16.667.667 0 0 1-.178-.244 2.937 2.937 0 0 1-.147-.6l-.209-1.28zm3.932 1.155l-.005-.41 1.053-.011.01.968c-.1.101-.248.19-.442.269-.193.077-.39.117-.59.12a1.32 1.32 0 0 1-.664-.154 1.02 1.02 0 0 1-.429-.453 1.484 1.484 0 0 1-.149-.646 1.407 1.407 0 0 1 .152-.677c.104-.198.257-.35.46-.458.154-.082.347-.124.578-.127.3-.003.537.058.707.182.17.126.281.3.332.522l-.487.097a.516.516 0 0 0-.195-.281.578.578 0 0 0-.353-.1.66.66 0 0 0-.507.21c-.124.137-.185.34-.183.606.003.29.07.505.198.647a.64.64 0 0 0 .505.211.843.843 0 0 0 .307-.063c.103-.041.19-.092.263-.15l-.003-.308-.558.006zm1.516.933L21.876.11l.486.068-.133.947.946.132.132-.946.486.068-.336 2.403-.486-.068.147-1.05-.945-.133-.147 1.05-.486-.068zM25.663.837l.844.294c.19.066.33.13.42.195.12.086.21.196.27.33.061.135.09.284.09.448a1.804 1.804 0 0 1-.114.568 1.591 1.591 0 0 1-.24.463 1.063 1.063 0 0 1-.385.32.855.855 0 0 1-.387.07 1.462 1.462 0 0 1-.425-.094l-.869-.302.797-2.292zm.33.549l-.527 1.517.343.12c.129.044.224.07.286.075a.445.445 0 0 0 .22-.031.51.51 0 0 0 .197-.18c.067-.09.13-.225.192-.403a1.44 1.44 0 0 0 .095-.423.554.554 0 0 0-.054-.268.464.464 0 0 0-.175-.182 2.212 2.212 0 0 0-.37-.153l-.207-.072zm1.174 2.579l1.117-2.154 1.593.828-.189.364-1.157-.601-.248.478 1.076.559-.189.364-1.076-.56-.302.584 1.199.623-.19.364-1.634-.85zm2.508 1.41l.589-2.509.445.289-.458 1.842 1.47-1.186.439.283-2.041 1.568-.444-.287zm1.333.953L32.602 4.5l1.352 1.18-.27.31-.982-.858-.354.406.914.798-.27.309-.913-.798-.432.495 1.018.89-.27.308-1.387-1.212zm1.687 1.525l1.825-1.567.32.373-1.514 1.3.791.923-.31.267-1.112-1.296zm2.245.802c.202-.142.394-.23.574-.267.133-.026.267-.028.402-.007a.953.953 0 0 1 .36.131c.138.088.265.212.378.374.206.293.279.59.22.894-.058.304-.25.57-.573.797-.321.225-.634.314-.937.267-.304-.047-.558-.217-.762-.508-.207-.296-.282-.595-.224-.896.058-.3.245-.562.562-.785zm.303.404c-.225.158-.359.33-.402.516a.622.622 0 0 0 .104.518c.112.16.262.251.45.274.187.021.395-.049.626-.21.228-.16.363-.33.404-.509a.62.62 0 0 0-.111-.516.624.624 0 0 0-.45-.281c-.186-.022-.392.047-.62.208zm.202 2.582l2.168-1.086.351.702c.133.267.21.445.228.537.029.14.01.28-.057.418a.754.754 0 0 1-.36.338.795.795 0 0 1-.37.096.67.67 0 0 1-.307-.077.71.71 0 0 1-.216-.176 2.784 2.784 0 0 1-.258-.437l-.142-.285-.817.41-.22-.44zm2.021-.463l-.618.31.12.238c.086.172.155.281.207.328a.316.316 0 0 0 .369.048.317.317 0 0 0 .16-.168.34.34 0 0 0 .01-.224 2.394 2.394 0 0 0-.143-.322l-.105-.21zm-1.06 2.502l2.306-.749.227.7-1.439.925 1.705-.102.227.701-2.305.75-.14-.433 1.814-.59-1.962.133-.146-.449 1.669-1.042-1.816.588-.14-.432zm.797 2.714l2.393-.39.289 1.772-.404.066-.21-1.288-.532.087.196 1.197-.405.067-.195-1.198-.648.106.218 1.335-.405.066-.297-1.82zm.353 2.237l2.424-.026.005.476-1.614 1.015 1.624-.017.005.454-2.424.026-.005-.49 1.583-1-1.593.016-.005-.454zm-.055 2.99l2.006.18.064-.715.408.036-.172 1.918-.408-.037.064-.712-2.006-.18.044-.49zm-.366 2.44l2.326.684-.222.754c-.084.285-.15.468-.198.548a.637.637 0 0 1-.327.267.752.752 0 0 1-.492.002.795.795 0 0 1-.338-.184.671.671 0 0 1-.171-.265.71.71 0 0 1-.039-.275c.011-.119.047-.284.11-.497l.09-.305-.877-.258.138-.472zm1.794 1.04l-.662-.195-.076.256c-.054.185-.078.311-.072.38a.317.317 0 0 0 .238.287c.085.025.162.021.232-.012a.339.339 0 0 0 .16-.158c.026-.053.064-.163.114-.332l.066-.226zm-2.435 1.13l2.203 1.014-.43.938c-.109.235-.208.397-.296.486a.555.555 0 0 1-.329.16.7.7 0 0 1-.391-.064.648.648 0 0 1-.343-.333c-.063-.147-.064-.323-.004-.529-.1.07-.198.121-.293.152-.096.032-.254.061-.474.088l-.553.071.244-.532.628-.098c.223-.035.367-.064.43-.087a.378.378 0 0 0 .154-.092.824.824 0 0 0 .128-.213l.041-.09-.92-.424.205-.446zm1.066 1.032l-.152.329c-.098.214-.15.35-.156.412a.263.263 0 0 0 .036.168c.03.05.079.09.145.121a.293.293 0 0 0 .207.024.298.298 0 0 0 .163-.128 4.02 4.02 0 0 0 .157-.321l.16-.348-.56-.257zm-1.019 1.766c.208.135.362.279.463.433.074.113.126.237.157.37.03.134.035.261.013.383a1.339 1.339 0 0 1-.203.491c-.195.3-.443.48-.746.54-.303.06-.62-.018-.953-.233-.329-.213-.529-.47-.599-.769-.07-.3-.009-.599.185-.898.196-.303.444-.485.745-.543.3-.06.613.016.938.226zm-.26.433c-.231-.15-.44-.209-.629-.18a.621.621 0 0 0-.441.291.619.619 0 0 0-.085.52c.05.182.194.35.43.502.234.152.441.213.622.185a.618.618 0 0 0 .437-.297c.11-.17.14-.345.091-.524-.05-.18-.19-.345-.425-.497zm-2.307 2.652l.309.27-.693.793-.728-.636a1.324 1.324 0 0 1 .094-.51c.07-.195.172-.369.303-.52.166-.19.351-.322.556-.394.204-.072.412-.078.623-.019.212.059.406.166.582.319.19.166.324.354.403.563.079.21.09.426.036.648-.042.17-.138.343-.29.517-.198.227-.4.363-.607.407a.86.86 0 0 1-.61-.099l.252-.428a.515.515 0 0 0 .34.041.579.579 0 0 0 .309-.197c.14-.161.2-.334.18-.518-.019-.185-.13-.365-.33-.54-.217-.19-.422-.285-.614-.283a.64.64 0 0 0-.493.236.842.842 0 0 0-.157.272 1.043 1.043 0 0 0-.064.297l.232.202.367-.421zm-1.677.54l1.578 1.84-.782.673c-.196.169-.354.275-.471.318a.554.554 0 0 1-.365.008.7.7 0 0 1-.33-.221.649.649 0 0 1-.172-.447c.004-.16.076-.32.217-.482-.12.022-.23.028-.33.016a2.74 2.74 0 0 1-.467-.118l-.533-.167.445-.381.61.173c.218.061.361.095.429.102.066.006.126 0 .177-.02a.822.822 0 0 0 .205-.141l.076-.065-.66-.769.373-.32zm.538 1.381l-.275.237c-.178.153-.282.255-.314.309a.264.264 0 0 0-.037.167.316.316 0 0 0 .08.17.293.293 0 0 0 .18.109.297.297 0 0 0 .2-.048c.035-.022.127-.097.277-.226l.29-.25-.401-.468zm-4.246 1.377l.447-.282.472.355.822-.519-.124-.575.44-.277.496 2.555-.438.277-2.115-1.534zm1.272.335l.764.58-.202-.935-.562.355zm-1.483-.182l.975 2.221-.673.296-1.063-1.34.272 1.688-.675.297-.975-2.222.415-.182.77 1.748-.33-1.942.431-.19 1.204 1.558-.767-1.75.416-.182zm-2.591 1.123l.63 2.343-.71.192-.85-1.485.016 1.71-.711.191-.63-2.343.437-.118.498 1.844-.035-1.968.456-.123.955 1.72-.494-1.845.438-.118zm-2.741.701l.27 2.411-1.784.2-.046-.407 1.296-.145-.06-.536-1.205.135-.045-.408 1.204-.134-.073-.654-1.342.15-.046-.407 1.83-.205z"/><path fill="#3FAACA" d="M11.095 12.214c-2.881 5.59-1.397 8.45-1.085 9.408 1.006-7.968 6.467-10.9 15.696-9.57-1.617-2.27-4.885-2.964-9.79-2.092 1.746-3.066 5.947-3.497 11.111-2.895-8.981-6.878-21.74.258-22.703 9.613 1.564-2.344 3.942-4.215 6.77-4.464z"/><path fill="#068203" d="M23.784 24.24c6.75-5.539 12.671-11.814 5.071-17.754 4.31.883 5.253 3.273 7.014 8.325 2.886 7.929-1.41 18.887-10.785 20.865 3.81-3.575 6.775-8.282 6.868-13.37l-8.168 1.933z"/><path fill="#F58634" d="M11.9 26.77c-.046-4.731 1.08-7.53 3.166-8.75-1.505 9.893 4.5 11.094 14.123 8.108-3.476 2.763-7.472 4.438-12.013 4.977 1.48 2.845 4.3 4.364 7.792 5.218-6.476 1.187-12.389.108-17.208-5.379-2.977-3.658-3.976-8.233-3.165-13.647C6.23 21.79 8.37 25.44 11.9 26.77z"/><path fill="#ED3237" d="M22.29 12.477c0 .13.06.15.157.215 0 .163.091.212.073.373-.013.119.012.315.012.455 0 .043-.175.103-.209.118-.193.087-.01.153-.174.139 0 .24-.114.3-.114.386 0 .11.035.145-.014.228-.156.263-.057.287-.271.555a.52.52 0 0 0-.14.402c0 .14-.02.1.014.228.093.362.034.418-.16.611-.133.133-.054.106-.103.253-.02.057.006.017-.03.04-.107.068-.09-.02-.09.196 0 .096.122.22-.059.234-.166.013-.189-.134-.38-.134-.113 0-.185.187-.27.243a.653.653 0 0 1-.128.043c-.042-.064-.038-.033-.077-.123-.045-.106-.09-.042-.159-.24-.022-.064-.049-.095-.062-.151l.043-.058c.22 0 .172-.088.069-.183-.022-.02-.05-.06-.084-.06l-1.768.134c-.104.019-.087.114-.16.224-.026.038-.085.116-.1.156-.03.07-.002.123-.046.211-.041.081-.08.062-.147.11-.048.032-.085.09-.123.133-.047.052-.07.234-.065.316.001.026.019.075.02.106.003.11-.178.167.044.558.045.08.175.136.175.223 0 .31.042.213-.11.474-.057.097-.053.098-.174.126 0 .036-.004.108.003.14.023.106.15.104-.073.246-.044.029-.033.034-.065.063-.029.026-.064.023-.106.023l-.118.209a.175.175 0 0 0-.024.066v.253c.053.014.153.092.218.124.115.057.108.058.192.164l.05.063c.032.04.038.03.051.077.075 0 .084 0 .142-.014.036.156.07.164.167.26.178.178.038.099.243.126l.024.006c.064.017.051.052.1.098.041.037.06.029.1.07.017.016.027.032.04.046.02.019.031.024.05.037.05.037.045.056.084.085.095-.022.128-.065.128.057l-.065.163c-.06.213-.029.16.003.343.014.086-.005.086.034.152.045.076.098.144.142.228a.612.612 0 0 0 .204-.108c.026-.025.027-.054.036-.107.02-.126.064-.084.19-.18.036-.027.038-.054.038-.105 0-.09-.057-.035-.057-.2 0-.1.178-.042.22-.022.103.05.114.137.242.059.04-.025.056-.082.077-.123.063.017.096.058.17.058.048 0 .065-.08.115-.1.017-.006.037-.01.055-.015.058.087.148.175.199.272.079 0 .094.013.156.014a.464.464 0 0 1 .058-.213l.041-.058c.192 0 .161-.054.284-.087.157-.042.123-.038.255-.128.064.015.129.06.2.084.148.049.093.016.17.13.35 0 .151.1.353.115.05.004.171.014.204.024.066.021.069.085.106.135.12.162.302.234.322.262.046.068.016.103.234.122.031.133.035.094-.075.21a.386.386 0 0 0-.123.232c.044.01.04.018.085.029 0 .238.036.3.27.3.062 0 .022-.009.077-.022.132-.031.106.005.216-.11.141-.148.173-.014.35-.092.163-.073.145-.06.226-.215.033-.062.056-.066.099-.114.05-.057.032-.095.065-.163.042-.084.053-.045.134-.08l.234-.193c.212-.282.266-.186.284-.384.008-.085-.014-.128.022-.193.024-.041.028-.015.028-.07 0-.028-.005-.071-.005-.107-.287-.152-.453-.24-.657-.495-.062-.077-.073-.079-.107-.178-.025-.073-.026-.043-.055-.087-.021-.031-.03-.305-.145-.497-.008-.013-.043-.065-.054-.046-.002.003-.008-.003-.01-.004l-.012-.002c-.11-.025-.194-.098-.194-.233l.063-.122c.022-.057.053-.07.097-.102.063-.047.168-.147.251-.147.111 0 .202.063.248.136.11.176 0 .178.305.178.05 0 .05-.056.066-.105.018-.056.033-.08.057-.128.141-.286.129-.21.266-.276.052-.024.064-.043.118-.067.061-.026.071-.02.12-.063.057-.049.05-.015.174-.097.028-.018.032-.015.057-.029.16-.088.217-.198.305-.25.037-.022.066-.049.1-.07.041-.025.074-.036.119-.066.095-.064.364-.226.47-.255.157-.042.366-.001.532-.007.07-.003.097-.006.12-.065.085-.223-.012-.284-.031-.354-.008-.03-.002-.05-.006-.08-.008-.06-.035-.067-.06-.125-.021-.049-.016-.113-.036-.15-.028-.054-.064-.027-.073-.113-.028-.283-.17-.442-.17-.556 0-.087.022-.109.037-.177.01-.048.012-.171.017-.214.013-.11-.032-.047-.057-.15-.03-.12.082-.203.1-.318.01-.057.009-.097.05-.135l.009-.006.016-.013c.053-.051.032-.08.046-.167.025-.146.051-.112.051-.277 0-.049-.012-.007-.02-.058l-.036-.2c.139-.093.023-.172.088-.267.077-.113.107-.098.086-.25-.047-.346.038-.317-.152-.562-.044-.057-.2-.227-.265-.26-.158-.08-.04 0-.163-.109-.095-.084-.177.002-.316.051a.634.634 0 0 1-.271.041c-.04 0-.044-.024-.064-.05-.062-.08-.07-.168-.116-.254a.486.486 0 0 0-.128-.115c-.12-.046-.283.183-.387-.266-.157 0-.32.053-.455-.057-.038-.032-.064-.084-.102-.126-.025-.027-.251-.189-.28-.189-.278 0-.316.077-.478.247-.039.04-.038.057-.111.049-.137-.017-.154-.045-.263-.11-.07-.04-.099-.047-.099-.128 0-.336.187-.224.071-.443-.067.006-.107.028-.184.028-.064 0-.243-.126-.355-.128-.013.052-.203.328-.244.34-.094.025-.184-.032-.257.04a.277.277 0 0 0-.094.205z"/><path d="M20 4.324c8.657 0 15.676 7.019 15.676 15.676S28.657 35.676 20 35.676 4.324 28.657 4.324 20 11.343 4.324 20 4.324z"/><circle cx="16.216" cy="15.135" r="1.081" fill="#3FAACA"/><circle cx="29.189" cy="15.135" r="1.081" fill="#068203"/><circle cx="18.378" cy="23.784" r="1.081" fill="#F58634"/></g></svg>