<svg xmlns="http://www.w3.org/2000/svg" width="59" height="59" viewBox="0 0 59 59">
    <g fill="none" fill-rule="evenodd">
        <path fill="#201E1E" fill-rule="nonzero" d="M26.256 55.339l-.67 3.515-1.065-.203-.172-2.518-1.08 2.28-1.067-.205.67-3.515.657.125-.525 2.768 1.22-2.635.683.13.162 2.9.53-2.768.657.126zm-7.118-1.937l.736.256.025.871 1.354.471.548-.672.723.252-2.485 2.924-.723-.251-.178-3.851zm.784 1.776l.035 1.414.89-1.092-.925-.322zm-1.124-1.975l-1.647 3.177-.622-.324-.202-2.807-1.104 2.129-.594-.309 1.647-3.176.642.334.203 2.756 1.083-2.088.594.309zm-5.794-3.593l.634.455-.223.843 1.165.836.716-.489.622.447-3.212 2.098-.621-.446.92-3.744zm.25 1.926l-.368 1.366 1.164-.795-.797-.571zm-2.652-2.389l-.418.436-1.12-1.077.988-1.03c.21-.001.458.057.743.175.284.119.532.28.744.484.27.26.45.541.541.848.091.305.086.613-.016.921a2.187 2.187 0 0 1-.51.834c-.258.27-.544.454-.858.556-.313.1-.632.104-.956.007-.248-.074-.494-.228-.74-.465-.32-.308-.506-.616-.557-.923-.05-.308.013-.605.19-.893l.611.402a.762.762 0 0 0-.084.497c.03.17.119.326.27.47.226.219.476.32.749.304.272-.016.545-.166.818-.45.295-.307.448-.602.46-.885a.946.946 0 0 0-.314-.744 1.243 1.243 0 0 0-.389-.25c-.15-.064-.294-.101-.432-.116l-.314.328.594.571zm-.604-2.539l-2.714 2.33-.471-.55 2.714-2.33.471.55zm-.926-1.07l-2.927 2.056-.403-.574 1.117-2.584-1.962 1.378-.384-.549L7.44 43.21l.415.593-1.092 2.538 1.924-1.351.385.548zM5.126 41.65l-.54.271-.695-1.39 1.275-.64c.2.07.413.208.642.415.228.206.408.441.54.705.167.334.242.66.226.98a1.507 1.507 0 0 1-.324.862 2.183 2.183 0 0 1-.76.616 2.072 2.072 0 0 1-.994.236 1.583 1.583 0 0 1-.903-.314c-.21-.153-.39-.38-.542-.686-.199-.398-.27-.75-.216-1.057a1.27 1.27 0 0 1 .477-.777l.443.583a.762.762 0 0 0-.246.44.855.855 0 0 0 .096.534c.14.282.342.461.605.537.262.077.57.027.922-.15.38-.19.623-.417.728-.68a.946.946 0 0 0-.046-.806 1.244 1.244 0 0 0-.282-.366 1.534 1.534 0 0 0-.369-.253l-.406.203.369.737zm-.227-3.907l-3.452.931-.282-1.048 2.188-1.254-2.52.023-.282-1.051 3.452-.93.174.646-2.717.735 2.901-.051.181.672-2.535 1.411 2.718-.73.174.646zm-.943-4.036l-3.529.577-.117-.716 3.53-.577.116.716zm-1.628-2.98l-.604.036-.094-1.551 1.424-.087c.156.142.298.352.428.632.129.28.202.567.22.861.023.373-.036.703-.176.99-.14.287-.353.51-.636.667a2.183 2.183 0 0 1-.94.268 2.071 2.071 0 0 1-1.007-.174 1.585 1.585 0 0 1-.708-.644c-.132-.222-.209-.503-.23-.844-.026-.443.046-.795.216-1.056.172-.26.42-.436.744-.528l.178.71a.76.76 0 0 0-.399.31.854.854 0 0 0-.12.528c.019.314.134.558.345.731.212.174.514.249.907.225.424-.026.737-.14.937-.34a.946.946 0 0 0 .273-.76c-.009-.15-.048-.3-.116-.448a1.538 1.538 0 0 0-.24-.377l-.453.027.05.824zm1.288-2.304l-3.562-.32.136-1.516c.034-.381.092-.655.171-.822a.819.819 0 0 1 .378-.385c.173-.088.365-.124.575-.105a.956.956 0 0 1 .641.294c.16.173.249.417.266.733.105-.147.216-.266.333-.357.118-.091.323-.21.615-.356l.734-.373-.077.861-.824.446a4.92 4.92 0 0 0-.556.334.56.56 0 0 0-.167.203 1.218 1.218 0 0 0-.073.361l-.013.146 1.487.134-.064.722zm-1.99-.907l.048-.533c.03-.345.035-.56.014-.65a.388.388 0 0 0-.133-.215.465.465 0 0 0-.261-.097.432.432 0 0 0-.3.07.44.44 0 0 0-.163.258 5.925 5.925 0 0 0-.06.524l-.05.562.905.081zM4.772 21.7l-.184.759-.863.109-.338 1.395.722.48-.18.745-3.15-2.192.18-.744 3.813-.552zm-1.69.954l-1.403.171 1.173.782.23-.953zm2.013-1.714l-2.806-.976-.348 1-.57-.198.93-2.682.572.199-.347.996 2.807.977-.238.684zm.83-2.061l-3.248-1.495.302-.659 3.249 1.495-.303.659zm-1.008-2.043c-.315-.183-.552-.385-.712-.604a1.68 1.68 0 0 1-.257-.535 1.409 1.409 0 0 1-.047-.562c.03-.24.119-.487.265-.74.266-.456.619-.738 1.061-.848.443-.108.916-.016 1.42.277.5.291.813.655.937 1.091.125.436.055.882-.21 1.336-.267.46-.62.745-1.059.853-.438.109-.904.02-1.398-.268zm.353-.656c.35.204.664.277.939.22a.917.917 0 0 0 .63-.459.913.913 0 0 0 .088-.771c-.087-.265-.31-.501-.669-.71-.355-.207-.665-.283-.93-.228-.265.054-.472.21-.622.468a.923.923 0 0 0-.098.778c.086.26.306.495.662.702zm3.301-1.885l-2.803-2.222.435-.55 2.792.334-1.878-1.489.415-.525 2.803 2.222-.449.568-2.742-.324 1.842 1.46-.415.526zm3.92-4.261l-1.934-2.257-.804.69-.393-.46 2.153-1.848.393.459-.8.687 1.935 2.257-.55.472zm1.72-1.453l-1.907-3.027.612-.387.752 1.192 1.19-.752-.75-1.192.612-.387 1.908 3.027-.613.387-.834-1.323-1.191.752.834 1.323-.612.387zm3.052-1.938l-1.439-3.277 1.392-.612c.35-.154.618-.236.802-.247a.818.818 0 0 1 .518.146c.162.109.285.26.37.453.109.246.126.48.052.704-.073.224-.244.42-.512.587.179.02.336.06.472.12.137.059.34.182.609.367l.68.464-.79.347-.788-.507a4.94 4.94 0 0 0-.561-.326.558.558 0 0 0-.259-.049 1.214 1.214 0 0 0-.35.111l-.134.059.6 1.368-.662.292zm-.167-2.182l.489-.215c.317-.14.508-.24.576-.301a.388.388 0 0 0 .124-.22.465.465 0 0 0-.041-.276.432.432 0 0 0-.206-.23.439.439 0 0 0-.305-.018c-.057.016-.22.083-.487.2l-.516.227.366.833zm2.794-.875c-.112-.347-.155-.656-.127-.926a1.68 1.68 0 0 1 .165-.57 1.41 1.41 0 0 1 .34-.45c.183-.159.413-.283.69-.373.502-.163.953-.137 1.356.077.402.214.693.599.873 1.154.178.551.168 1.03-.03 1.438-.197.409-.547.694-1.046.856-.506.164-.96.14-1.358-.073-.399-.212-.686-.59-.863-1.133zm.7-.253c.126.386.31.65.553.791a.916.916 0 0 0 .775.079.911.911 0 0 0 .58-.516c.112-.255.103-.58-.025-.976-.126-.39-.306-.654-.54-.79-.234-.137-.492-.16-.776-.067a.92.92 0 0 0-.591.514c-.11.251-.102.573.025.965zM23.737.625l.715-.117.312 1.915c.05.304.09.499.123.586.054.14.144.244.272.313.128.07.29.087.488.055.2-.032.344-.098.432-.198.088-.1.133-.21.133-.335.001-.124-.02-.326-.066-.605l-.32-1.956.715-.116.303 1.857c.07.424.1.727.09.909-.01.181-.057.34-.14.479a1.079 1.079 0 0 1-.367.355c-.161.1-.38.173-.659.218-.336.055-.597.058-.783.008a1.108 1.108 0 0 1-.461-.237.984.984 0 0 1-.263-.36c-.08-.194-.152-.49-.216-.885L23.736.625zm5.799 1.704l-.006-.605 1.552-.016.015 1.428c-.149.149-.366.28-.652.396a2.382 2.382 0 0 1-.87.176c-.373.004-.7-.07-.98-.225a1.506 1.506 0 0 1-.632-.669 2.19 2.19 0 0 1-.22-.953c-.004-.373.07-.706.223-.998.154-.292.38-.517.678-.676.229-.121.513-.183.854-.187.444-.004.792.085 1.043.27.251.184.414.44.49.769l-.718.142a.761.761 0 0 0-.288-.414.853.853 0 0 0-.521-.147c-.315.003-.564.106-.748.309-.183.202-.273.5-.27.895.005.425.102.744.293.954.191.21.438.314.744.311.15-.001.302-.033.453-.094.151-.06.28-.134.388-.22l-.004-.454-.824.008zm2.236 1.377L32.266.16l.717.1-.195 1.397 1.395.195.195-1.396.717.1-.495 3.545-.717-.1.216-1.55-1.394-.196-.217 1.55-.717-.1zm6.083-2.471l1.243.433c.281.097.487.193.62.287.177.127.31.29.399.489.09.198.133.418.132.66-.002.24-.057.52-.167.837a2.347 2.347 0 0 1-.354.683c-.17.217-.359.374-.568.471a1.26 1.26 0 0 1-.572.104 2.156 2.156 0 0 1-.627-.138l-1.28-.446 1.174-3.38zm.485.81l-.777 2.237.507.177c.19.065.33.102.421.11a.657.657 0 0 0 .324-.045c.096-.041.192-.13.29-.264.1-.135.194-.334.285-.595.09-.262.137-.47.14-.626a.817.817 0 0 0-.08-.394.684.684 0 0 0-.259-.269c-.087-.054-.27-.13-.546-.226l-.305-.106zm1.733 3.803l1.648-3.176 2.348 1.22-.278.537-1.706-.887-.366.706 1.586.824-.278.537-1.587-.825-.446.861 1.768.92-.278.536-2.411-1.253zm3.699 2.08l.868-3.7.657.425-.676 2.718 2.17-1.75.646.418-3.01 2.313-.655-.424zm1.966 1.406l2.35-2.697 1.995 1.742-.397.456-1.45-1.265-.521.599 1.347 1.176-.397.456-1.347-1.177-.637.73 1.501 1.312-.397.456-2.047-1.788zm2.489 2.25l2.69-2.312.472.55-2.232 1.917 1.167 1.362-.459.394-1.638-1.912zm3.31 1.182c.3-.21.581-.34.847-.394.196-.038.394-.041.593-.01.2.033.376.097.53.194.205.128.391.312.559.55.303.433.41.872.325 1.32-.087.448-.369.84-.846 1.174-.474.333-.935.464-1.382.395-.448-.07-.823-.32-1.125-.75-.305-.436-.416-.876-.33-1.32.086-.444.362-.83.83-1.159zm.448.596c-.332.233-.53.487-.593.76a.918.918 0 0 0 .152.765c.166.237.387.37.663.404.277.032.585-.072.925-.31.336-.236.535-.486.596-.75.062-.263.007-.517-.164-.762a.92.92 0 0 0-.665-.414c-.272-.032-.577.07-.914.307zm.297 3.808l3.198-1.601.518 1.036c.196.392.308.656.336.791a.941.941 0 0 1-.083.617c-.1.205-.276.37-.53.498a1.173 1.173 0 0 1-.549.141.988.988 0 0 1-.451-.113 1.047 1.047 0 0 1-.318-.259 4.107 4.107 0 0 1-.381-.646l-.21-.42-1.206.604-.324-.648zm2.982-.683l-.912.457.177.352c.127.254.228.415.305.483a.467.467 0 0 0 .544.07.467.467 0 0 0 .238-.246.5.5 0 0 0 .013-.33 3.532 3.532 0 0 0-.21-.475l-.155-.31zm-1.564 3.69l3.4-1.103.335 1.032-2.122 1.363 2.516-.15.335 1.035-3.401 1.105-.207-.638 2.677-.871-2.895.198-.215-.663 2.461-1.537-2.678.867-.206-.637zm1.176 4.005l3.529-.577.426 2.614-.596.098-.31-1.9-.784.129.289 1.766-.597.097-.288-1.766-.956.157.321 1.968-.596.097-.438-2.683zm.52 3.298l3.575-.037.008.701-2.381 1.498 2.396-.025.007.67-3.575.037-.008-.723 2.335-1.476-2.35.025-.007-.67zm-.081 4.411l2.959.266.095-1.055.601.054-.253 2.827-.602-.054.094-1.05-2.96-.266.066-.722zm-.54 3.598l3.43 1.01-.326 1.112c-.124.42-.221.69-.293.808a.94.94 0 0 1-.481.395c-.212.082-.454.082-.727.002a1.173 1.173 0 0 1-.498-.27.99.99 0 0 1-.253-.391 1.048 1.048 0 0 1-.056-.407c.015-.175.069-.419.161-.732l.133-.451-1.294-.381.204-.695zm2.647 1.534l-.978-.287-.11.378c-.08.272-.116.46-.107.562a.467.467 0 0 0 .35.422c.126.037.24.03.342-.018a.5.5 0 0 0 .235-.233c.04-.078.096-.24.17-.49l.098-.333zm-3.592 1.669l3.249 1.495-.635 1.382c-.16.348-.306.587-.436.718a.818.818 0 0 1-.485.235 1.031 1.031 0 0 1-.577-.093.956.956 0 0 1-.506-.492c-.093-.216-.095-.476-.006-.78a1.65 1.65 0 0 1-.432.225c-.142.047-.375.09-.7.13l-.815.104.36-.785.926-.144c.33-.053.541-.096.636-.128a.557.557 0 0 0 .225-.136c.057-.06.12-.164.19-.316l.06-.133-1.356-.624.302-.658zm1.572 1.52l-.224.486c-.144.315-.22.517-.23.608-.01.09.008.174.053.248a.465.465 0 0 0 .213.179c.11.05.211.061.306.034a.439.439 0 0 0 .24-.188c.033-.05.11-.208.232-.474l.235-.513-.826-.38zm-1.503 2.606c.306.199.533.411.682.638.11.167.187.35.232.547.045.197.051.384.02.563-.042.239-.142.48-.3.726-.287.443-.653.708-1.1.797-.448.087-.916-.028-1.406-.345-.485-.314-.78-.693-.883-1.134-.104-.441-.013-.883.272-1.325.29-.447.656-.714 1.1-.801.442-.087.904.024 1.383.334zm-.384.639c-.34-.22-.65-.309-.927-.265a.916.916 0 0 0-.65.429.913.913 0 0 0-.126.766c.075.269.286.515.634.741.345.223.651.314.918.272.268-.04.482-.187.644-.438a.922.922 0 0 0 .135-.772c-.073-.265-.282-.51-.628-.733zm-3.402 3.91l.455.398-1.021 1.172-1.075-.939c-.012-.21.035-.46.139-.751.104-.29.253-.545.447-.767a1.95 1.95 0 0 1 .82-.582c.3-.106.608-.115.92-.028.312.087.598.244.857.47.28.245.48.522.596.83.115.31.133.628.052.957-.061.251-.204.505-.428.762-.292.335-.59.535-.895.6a1.267 1.267 0 0 1-.9-.146l.372-.63a.76.76 0 0 0 .5.06.853.853 0 0 0 .457-.292c.207-.237.296-.492.267-.764-.03-.272-.192-.538-.488-.797-.32-.28-.623-.419-.906-.416a.944.944 0 0 0-.728.348c-.099.114-.176.248-.23.401-.056.154-.087.3-.095.438l.342.298.542-.621zm-2.474.797l2.328 2.716-1.154.991c-.29.249-.522.405-.695.47a.817.817 0 0 1-.539.011 1.031 1.031 0 0 1-.485-.326.957.957 0 0 1-.254-.659c.005-.235.112-.472.32-.71-.178.032-.34.04-.487.023a4.04 4.04 0 0 1-.69-.175l-.784-.246.655-.562.9.256c.322.09.533.14.632.15.099.009.186 0 .261-.03.077-.03.177-.1.304-.208l.11-.095-.971-1.135.55-.471zm.794 2.038l-.406.349c-.263.225-.417.377-.463.456a.389.389 0 0 0-.055.246c.01.087.05.17.12.252a.432.432 0 0 0 .263.16.438.438 0 0 0 .297-.071c.05-.032.186-.144.408-.334l.427-.367-.591-.69zm-6.263 2.031l.66-.416.695.524 1.213-.766-.183-.848.648-.409.733 3.769-.647.408-3.119-2.262zm1.876.494l1.126.855-.298-1.378-.828.523zm-2.188-.27l1.439 3.277-.993.437-1.568-1.977.401 2.49-.995.438-1.438-3.277.612-.27 1.135 2.58-.487-2.864.637-.28 1.775 2.297-1.13-2.58.612-.27zm-3.821 1.658l.93 3.456-1.048.282-1.253-2.19.023 2.522-1.05.283-.93-3.456.647-.174.734 2.72-.051-2.904.672-.181 1.41 2.538-.73-2.721.646-.175zm-4.043 1.034l.397 3.557-2.63.294-.068-.601 1.911-.214-.088-.79-1.777.2-.067-.602 1.777-.199-.108-.964-1.98.222-.067-.601 2.7-.302z"/>
        <path fill="#3FAACA" d="M15.841 17.86c-4.187 8.403-2.03 12.701-1.577 14.14 1.463-11.976 9.401-16.382 22.816-14.386-2.35-3.412-7.1-4.454-14.232-3.143C25.388 9.863 31.494 9.215 39 10.12 25.945-.219 7.4 10.508 6 24.57c2.272-3.523 5.73-6.336 9.841-6.71z"/>
        <path fill="#068203" d="M35 36.153C44.885 27.994 53.56 18.749 42.428 10c6.312 1.3 7.693 4.821 10.272 12.264C56.927 33.944 50.634 50.087 36.904 53c5.581-5.266 9.922-12.2 10.059-19.696L35 36.153z"/>
        <path fill="#F58634" d="M17.273 40.117c-.068-7.051 1.608-11.222 4.71-13.04C19.745 41.82 28.68 43.61 43 39.16c-5.172 4.118-11.12 6.614-17.876 7.417 2.202 4.24 6.399 6.503 11.595 7.777-9.637 1.769-18.435.16-25.606-8.016-4.43-5.451-5.916-12.27-4.71-20.338 2.433 6.695 5.617 12.135 10.87 14.117z"/>
        <path fill="#ED3237" d="M33.185 18.867c0 .192.086.22.224.317 0 .242.132.314.106.551-.02.177.017.468.017.674 0 .064-.252.154-.3.176-.278.129-.014.225-.251.205 0 .356-.164.444-.164.57 0 .164.05.217-.02.339-.225.39-.083.424-.39.821-.162.208-.2.315-.201.596 0 .205-.028.147.02.337.134.535.05.618-.23.904-.192.197-.078.157-.149.374-.028.085.01.025-.044.06-.153.1-.129-.03-.129.29 0 .141.176.325-.084.345-.24.02-.272-.197-.548-.197-.162 0-.265.276-.389.358a.921.921 0 0 1-.183.064c-.06-.094-.055-.048-.11-.181-.065-.157-.13-.062-.23-.355-.031-.095-.07-.14-.089-.225l.062-.084c.317 0 .248-.13.1-.272-.032-.03-.072-.087-.12-.087l-2.546.196c-.149.028-.125.17-.23.332-.037.057-.122.173-.145.231-.04.103-.002.183-.065.313-.059.12-.113.092-.211.162-.069.048-.122.134-.177.197-.068.077-.101.347-.094.468.002.039.027.111.029.157.005.161-.257.247.063.826.065.117.252.2.252.33 0 .458.061.315-.159.702-.081.143-.075.144-.249.186 0 .054-.006.16.004.207.033.157.216.153-.105.365-.063.041-.048.05-.094.093-.04.037-.091.033-.152.033l-.17.31a.264.264 0 0 0-.034.097v.375c.076.02.22.135.313.183.165.084.155.086.276.242l.073.094c.046.059.055.044.073.115.108 0 .12-.001.204-.021.052.23.1.242.24.385.257.263.054.146.35.186l.034.008c.093.025.075.078.146.145.058.055.084.043.144.105.023.024.037.047.057.067.028.028.044.035.07.054.074.055.066.084.122.127.136-.032.184-.096.184.085l-.094.24c-.085.316-.04.236.004.508.021.128-.006.128.049.224.065.114.141.214.204.338a.873.873 0 0 0 .295-.16c.037-.036.039-.08.051-.158.03-.187.092-.124.274-.266.051-.04.054-.08.054-.155 0-.134-.082-.053-.082-.296 0-.15.257-.063.317-.033.148.074.164.202.348.087.058-.037.08-.121.11-.181.091.025.138.084.246.084.069 0 .094-.116.165-.146.024-.01.053-.016.08-.023.082.128.212.258.285.402.114 0 .136.019.225.021.008-.102.029-.235.084-.315.02-.03.04-.056.059-.087.276 0 .231-.078.407-.127.227-.063.178-.058.369-.19.091.023.184.09.288.125.212.071.133.023.242.192.504 0 .219.147.51.17.073.006.245.02.292.035.096.032.1.126.154.2.171.24.434.346.462.388.067.1.023.152.338.18.044.198.05.14-.108.311a.576.576 0 0 0-.178.344c.063.015.059.027.122.042 0 .353.052.444.388.444.09 0 .033-.012.112-.032.19-.047.153.007.312-.164.202-.217.248-.02.501-.135.236-.108.21-.09.327-.318.047-.092.08-.099.142-.17.073-.083.046-.14.094-.24.06-.124.076-.066.192-.118l.337-.286c.305-.418.382-.275.41-.569.011-.125-.021-.19.031-.286.034-.06.04-.022.04-.102 0-.043-.008-.107-.008-.159-.412-.226-.651-.356-.945-.733-.09-.114-.104-.117-.154-.263-.036-.108-.037-.064-.08-.13-.03-.046-.042-.45-.207-.735-.011-.02-.062-.096-.078-.068-.002.005-.011-.004-.015-.005l-.016-.004c-.16-.037-.28-.144-.28-.344l.09-.18c.032-.086.076-.104.14-.152.091-.07.242-.218.361-.218.16 0 .29.094.357.202.159.26 0 .263.44.263.07 0 .07-.083.094-.156.026-.082.048-.117.082-.19.204-.422.185-.31.382-.406.075-.037.093-.065.17-.1.09-.04.103-.03.174-.094.08-.072.07-.022.25-.143.04-.027.045-.022.082-.042.231-.132.312-.295.438-.37.054-.034.096-.073.145-.104.059-.038.105-.053.17-.098.138-.095.525-.334.677-.377.226-.063.526-.002.765-.011.102-.004.14-.01.173-.097.122-.329-.018-.419-.045-.524-.011-.042-.003-.073-.009-.118-.011-.09-.049-.099-.086-.185-.03-.072-.022-.166-.05-.222-.042-.08-.094-.04-.106-.166-.04-.42-.245-.655-.245-.824 0-.128.032-.16.053-.262.014-.07.018-.253.025-.316.018-.164-.046-.07-.083-.223-.042-.176.118-.3.146-.47.013-.084.011-.143.072-.2l.011-.009.023-.019c.077-.076.046-.12.067-.247.036-.217.074-.166.074-.41 0-.072-.019-.01-.029-.086l-.053-.295c.2-.139.034-.255.127-.396.11-.167.154-.145.124-.37-.068-.511.054-.469-.218-.831-.064-.085-.288-.337-.383-.386-.226-.119-.058 0-.233-.16-.137-.125-.255.002-.455.075a.889.889 0 0 1-.39.06c-.058 0-.063-.035-.092-.074-.09-.117-.101-.248-.167-.376a.707.707 0 0 0-.184-.17c-.174-.068-.408.271-.558-.394-.226 0-.46.079-.653-.084-.056-.047-.094-.125-.147-.186-.036-.04-.362-.28-.404-.28-.4 0-.454.113-.688.366-.055.06-.054.085-.16.072-.197-.025-.221-.066-.378-.161-.1-.062-.141-.07-.141-.192 0-.496.268-.33.102-.655-.097.008-.155.042-.266.042-.091 0-.35-.186-.51-.19-.02.077-.292.486-.352.502-.134.038-.264-.046-.37.062a.414.414 0 0 0-.135.303z"/>
        <path d="M29 6c12.703 0 23 10.297 23 23S41.703 52 29 52 6 41.703 6 29 16.297 6 29 6z"/>
        <circle cx="23.5" cy="22.5" r="1.5" fill="#3FAACA"/>
        <circle cx="42.5" cy="22.5" r="1.5" fill="#068203"/>
        <circle cx="27.5" cy="34.5" r="1.5" fill="#F58634"/>
    </g>
</svg>
