<svg xmlns="http://www.w3.org/2000/svg" width="32" height="32" viewBox="0 0 32 32">
    <g fill="none" fill-rule="evenodd">
        <circle cx="16" cy="16" r="16" fill="#84C8DD"/>
        <g fill="#FFF">
            <path fill-rule="nonzero" d="M22.49 8.556h-2.683v-.539c0-.892-.723-1.617-1.61-1.617h-4.294c-.887 0-1.61.725-1.61 1.617v.54H9.61c-.888 0-1.61.725-1.61 1.616a1.62 1.62 0 0 0 1.11 1.537l.957 11.607A1.622 1.622 0 0 0 11.67 24.8h8.758c.83 0 1.536-.651 1.605-1.483l.957-11.607a1.619 1.619 0 0 0-.501-3.154zm-9.123-.539c0-.297.24-.539.536-.539h4.294c.296 0 .536.242.536.54v.538h-5.366v-.539zm7.597 15.21a.54.54 0 0 1-.535.495h-8.758a.54.54 0 0 1-.535-.494l-.943-11.437h11.714l-.943 11.437zm1.526-12.515H9.61a.538.538 0 0 1 0-1.078h12.88a.538.538 0 0 1 0 1.078z"/>
            <path d="M13.877 21.931l-.511-8.64a.52.52 0 0 0-.542-.501.527.527 0 0 0-.479.568l.512 8.64a.522.522 0 0 0 .51.502.526.526 0 0 0 .51-.569zM16.178 12.789a.524.524 0 0 0-.511.535v8.64c0 .296.229.536.51.536.283 0 .512-.24.512-.536v-8.64a.524.524 0 0 0-.511-.535zM19.276 12.79a.52.52 0 0 0-.542.501l-.51 8.64a.527.527 0 0 0 .478.568.52.52 0 0 0 .541-.501l.512-8.64a.527.527 0 0 0-.479-.568z"/>
        </g>
    </g>
</svg>
